<?xml version="1.0" encoding="UTF-8" standalone="yes"?>
<!DOCTYPE svg PUBLIC "-//W3C//DTD SVG 1.1//EN" "http://www.w3.org/Graphics/SVG/1.1/DTD/svg11.dtd">

<svg width="44" height="59" viewBox="0 0 44 59" xmlns="http://www.w3.org/2000/svg" xmlns:xlink="http://www.w3.org/1999/xlink" version="1.1" baseProfile="full">
    <defs>
        <linearGradient id="105553243283184105553153104672" x1="50.000000%" x2="50.000000%" y1="100.000000%" y2="0.000000%">
            <stop offset="0%" style="stop-color:#ffff00;stop-opacity:1.000000"></stop>
            <stop offset="100%" style="stop-color:#ff007f;stop-opacity:1.000000"></stop>
        </linearGradient>
    </defs>
    <g transform="scale(1,-1) translate(0,-59)">
        <path d="M 10.210324 55.928184 C 11.802344 53.680655 14.657410 49.608730 18.776096 43.711601 C 19.061958 43.283068 20.021214 41.879296 21.656789 39.496062 L 20.675079 39.507019 C 24.278475 44.514269 26.992759 48.281457 28.818005 50.808686 C 28.940536 51.017120 29.092300 51.244762 29.245567 51.449116 C 30.921757 53.824119 32.584769 56.142936 34.224428 58.391580 C 34.717676 59.160756 35.451963 59.645378 36.371417 59.789041 C 37.268744 59.929247 38.110787 59.743714 38.867537 59.239221 C 39.638949 58.724953 40.107674 57.992579 40.250606 57.077828 C 40.390443 56.182881 40.206247 55.332755 39.706253 54.554997 C 38.051520 52.237168 36.389859 49.920234 34.704801 47.579908 C 34.577826 47.364212 34.398648 47.108247 34.195054 46.853758 C 32.389289 44.305461 29.299732 40.022269 24.946533 34.030849 L 24.955316 34.723793 C 26.918638 31.872341 28.671272 29.371950 30.213085 27.222784 C 30.554675 26.687732 30.877364 26.203706 31.199796 25.743094 C 36.765993 17.791491 41.232449 11.524506 44.598548 6.942934 C 45.158420 6.215349 45.376730 5.371228 45.234271 4.459503 C 45.093444 3.558218 44.649178 2.813008 43.919304 2.251574 C 43.181132 1.683757 42.337005 1.465451 41.425275 1.607907 C 40.523981 1.748732 39.778764 2.192990 39.217323 2.922854 C 35.789555 7.618042 31.295093 13.938294 25.724404 21.896315 C 25.393730 22.414856 25.055336 22.888603 24.694535 23.339597 C 23.452125 25.152441 22.095943 27.116541 20.599350 29.267864 L 21.578558 29.259571 C 16.618328 22.380854 11.845279 15.759506 7.259410 9.395529 C 6.754112 8.665476 6.031138 8.202779 5.128387 8.033516 C 4.219944 7.863185 3.365435 8.051464 2.601845 8.588798 C 1.837761 9.126479 1.373495 9.866394 1.231251 10.776741 C 1.091414 11.671687 1.275611 12.521814 1.775604 13.299571 C 6.613140 20.017106 11.760397 27.176377 17.235224 34.803597 L 17.228417 34.113528 C 14.743010 37.724353 13.412310 39.662014 13.222454 39.946794 C 9.160053 45.783288 6.330526 49.805371 4.742261 52.000885 C 4.225692 52.746804 4.038734 53.580910 4.179335 54.480742 C 4.320828 55.386282 4.769208 56.123931 5.506118 56.662435 C 6.243255 57.201104 7.082506 57.403680 7.988332 57.262146 C 8.889625 57.121321 9.634842 56.677063 10.196283 55.947200 Z M 9.245139 55.215541 C 8.870680 55.702331 8.399228 55.983385 7.803082 56.076531 C 7.211468 56.168970 6.693665 56.043984 6.214132 55.693561 C 5.734373 55.342972 5.457431 54.887365 5.364949 54.295487 C 5.271575 53.697899 5.388785 53.174969 5.721706 52.694089 C 7.308318 50.501080 10.140984 46.474535 14.214142 40.622375 C 14.405413 40.335689 15.742027 38.389419 18.216888 34.793914 C 18.360365 34.585470 18.357641 34.309417 18.210081 34.103844 C 12.734883 26.476107 7.587244 19.316306 2.767163 12.624438 C 2.442699 12.118172 2.322728 11.564468 2.416865 10.961995 C 2.508597 10.374923 2.793050 9.921582 3.292431 9.570170 C 3.792305 9.218412 4.318248 9.102527 4.907244 9.212963 C 5.501933 9.324465 5.948834 9.610478 6.279314 10.087833 C 10.871792 16.461164 15.644918 23.082618 20.605224 29.961440 C 20.847197 30.297002 21.348177 30.292759 21.584432 29.953147 C 23.082718 27.799390 24.440645 25.832764 25.658236 24.053231 C 26.019493 23.604345 26.383022 23.095410 26.722136 22.562524 C 32.273994 14.632417 36.764168 8.318195 40.177505 3.642453 C 40.542926 3.167723 41.014378 2.886668 41.610524 2.793522 C 42.196233 2.702006 42.709161 2.834658 43.187658 3.202728 C 43.674454 3.577181 43.955510 4.048624 44.048657 4.644758 C 44.140173 5.230453 44.007521 5.743368 43.639449 6.221855 C 40.259116 10.822556 35.787730 17.096457 30.216722 25.054933 C 29.884025 25.530208 29.551584 26.028864 29.219370 26.550908 C 27.691389 28.679202 25.934400 31.185807 23.966943 34.043265 C 23.822699 34.252760 23.826219 34.530439 23.975726 34.736210 C 28.326393 40.724144 31.413773 45.004318 33.237098 47.575639 C 33.428783 47.816853 33.577170 48.028832 33.703389 48.239194 C 35.415145 50.620188 37.075927 52.935895 38.713310 55.228201 C 39.039159 55.736397 39.159130 56.290101 39.064992 56.892573 C 38.973949 57.475241 38.693955 57.912726 38.201903 58.240757 C 37.695188 58.578562 37.156779 58.697193 36.556667 58.603426 C 35.978681 58.513117 35.543093 58.225633 35.213935 57.713616 C 33.558042 55.440954 31.898611 53.127130 30.215743 50.743099 C 30.078060 50.559108 29.949053 50.365601 29.818904 50.148688 C 27.966052 47.579530 25.252119 43.812828 21.649088 38.806087 C 21.406355 38.468787 20.902522 38.474410 20.667378 38.817044 C 19.027304 41.206833 18.067967 42.610723 17.784964 43.035221 C 13.675058 48.919535 10.821136 52.989827 9.231099 55.234557 Z" transform="scale(1.000000,1.000000) translate(-1.000000,-1.000000)" fill="url(#105553243283184105553153104672)" opacity="1.000000"></path>
    </g>
</svg>