<?xml version="1.0" encoding="UTF-8" standalone="yes"?>
<!DOCTYPE svg PUBLIC "-//W3C//DTD SVG 1.1//EN" "http://www.w3.org/Graphics/SVG/1.1/DTD/svg11.dtd">

<svg width="110" height="59" viewBox="0 0 110 59" xmlns="http://www.w3.org/2000/svg" xmlns:xlink="http://www.w3.org/1999/xlink" version="1.1" baseProfile="full">
    <defs>
        <linearGradient id="105553244173280105553153430112" x1="50.000000%" x2="50.000000%" y1="100.000000%" y2="0.000000%">
            <stop offset="0%" style="stop-color:#ffff00;stop-opacity:1.000000"></stop>
            <stop offset="100%" style="stop-color:#ff007f;stop-opacity:1.000000"></stop>
        </linearGradient>
        <radialGradient id="12789758437172800" cx="38" cy="20" r="38" fx="38" fy="20" gradientUnits="userSpaceOnUse">
            <stop offset="0%" style="stop-color:#a7dfdd;stop-opacity:1.000000"></stop>
            <stop offset="100%" style="stop-color:#58d1cd;stop-opacity:1.000000"></stop>
        </radialGradient>
    </defs>
    <g transform="scale(1,-1) translate(0,-59)">
        <path d="M 10.210324 55.928184 C 11.802345 53.680656 14.657411 49.608731 18.776096 43.711601 C 19.061958 43.283068 20.021214 41.879297 21.656790 39.496062 L 20.675079 39.507019 C 24.278475 44.514269 26.992759 48.281458 28.818004 50.808687 C 28.940536 51.017121 29.092300 51.244763 29.245567 51.449116 C 30.921757 53.824119 32.584769 56.142936 34.224427 58.391581 C 34.717676 59.160757 35.451962 59.645379 36.371416 59.789042 C 37.268743 59.929247 38.110786 59.743715 38.867536 59.239222 C 39.638948 58.724954 40.107674 57.992580 40.250606 57.077829 C 40.390443 56.182882 40.206246 55.332755 39.706253 54.554998 C 38.051520 52.237169 36.389859 49.920235 34.704801 47.579908 C 34.577826 47.364212 34.398648 47.108248 34.195054 46.853759 C 32.389289 44.305461 29.299732 40.022269 24.946533 34.030849 L 24.955316 34.723793 C 26.918638 31.872341 28.671272 29.371950 30.213085 27.222784 C 30.554675 26.687732 30.877363 26.203706 31.199796 25.743094 C 36.765993 17.791491 41.232449 11.524506 44.598547 6.942933 C 45.158419 6.215348 45.376730 5.371227 45.234271 4.459503 C 45.093443 3.558217 44.649177 2.813007 43.919304 2.251573 C 43.181132 1.683756 42.337005 1.465450 41.425274 1.607906 C 40.523981 1.748731 39.778764 2.192990 39.217323 2.922853 C 35.789555 7.618041 31.295093 13.938294 25.724404 21.896314 C 25.393730 22.414856 25.055336 22.888603 24.694535 23.339597 C 23.452125 25.152441 22.095943 27.116541 20.599350 29.267864 L 21.578558 29.259571 C 16.618328 22.380853 11.845279 15.759506 7.259411 9.395528 C 6.754112 8.665475 6.031139 8.202778 5.128388 8.033515 C 4.219945 7.863184 3.365436 8.051463 2.601846 8.588797 C 1.837762 9.126479 1.373496 9.866393 1.231252 10.776740 C 1.091415 11.671687 1.275611 12.521813 1.775605 13.299571 C 6.613141 20.017106 11.760398 27.176377 17.235224 34.803597 L 17.228417 34.113528 C 14.743011 37.724353 13.412310 39.662014 13.222454 39.946794 C 9.160053 45.783288 6.330527 49.805371 4.742261 52.000886 C 4.225692 52.746804 4.038735 53.580911 4.179336 54.480742 C 4.320828 55.386283 4.769209 56.123932 5.506119 56.662436 C 6.243255 57.201105 7.082507 57.403680 7.988332 57.262147 C 8.889626 57.121322 9.634843 56.677063 10.196284 55.947200 Z M 9.245140 55.215541 C 8.870681 55.702331 8.399229 55.983385 7.803083 56.076532 C 7.211469 56.168970 6.693666 56.043985 6.214133 55.693562 C 5.734373 55.342973 5.457432 54.887366 5.364950 54.295487 C 5.271575 53.697900 5.388785 53.174970 5.721707 52.694090 C 7.308319 50.501081 10.140985 46.474535 14.214143 40.622375 C 14.405414 40.335689 15.742027 38.389419 18.216888 34.793914 C 18.360365 34.585470 18.357642 34.309417 18.210081 34.103844 C 12.734883 26.476106 7.587245 19.316305 2.767164 12.624438 C 2.442699 12.118171 2.322729 11.564467 2.416866 10.961995 C 2.508597 10.374922 2.793051 9.921581 3.292432 9.570169 C 3.792306 9.218411 4.318248 9.102527 4.907245 9.212962 C 5.501933 9.324465 5.948834 9.610477 6.279315 10.087832 C 10.871792 16.461164 15.644919 23.082618 20.605224 29.961440 C 20.847197 30.297002 21.348177 30.292759 21.584432 29.953147 C 23.082718 27.799390 24.440645 25.832764 25.658237 24.053231 C 26.019493 23.604344 26.383022 23.095409 26.722136 22.562523 C 32.273994 14.632416 36.764168 8.318194 40.177505 3.642452 C 40.542926 3.167722 41.014378 2.886668 41.610524 2.793521 C 42.196233 2.702005 42.709160 2.834657 43.187657 3.202727 C 43.674453 3.577180 43.955510 4.048624 44.048657 4.644757 C 44.140173 5.230452 44.007521 5.743367 43.639448 6.221855 C 40.259115 10.822556 35.787730 17.096457 30.216722 25.054933 C 29.884025 25.530208 29.551584 26.028864 29.219370 26.550907 C 27.691389 28.679202 25.934400 31.185807 23.966943 34.043265 C 23.822699 34.252760 23.826219 34.530439 23.975726 34.736210 C 28.326393 40.724144 31.413773 45.004318 33.237098 47.575639 C 33.428782 47.816854 33.577169 48.028832 33.703389 48.239195 C 35.415145 50.620189 37.075927 52.935896 38.713310 55.228202 C 39.039158 55.736397 39.159129 56.290101 39.064992 56.892574 C 38.973949 57.475242 38.693954 57.912727 38.201902 58.240757 C 37.695188 58.578562 37.156779 58.697193 36.556666 58.603427 C 35.978681 58.513118 35.543093 58.225634 35.213935 57.713617 C 33.558042 55.440955 31.898611 53.127131 30.215743 50.743100 C 30.078060 50.559108 29.949053 50.365601 29.818904 50.148689 C 27.966052 47.579531 25.252119 43.812829 21.649088 38.806087 C 21.406355 38.468787 20.902522 38.474411 20.667378 38.817045 C 19.027304 41.206834 18.067967 42.610724 17.784964 43.035222 C 13.675058 48.919536 10.821137 52.989828 9.231099 55.234557 Z" transform="scale(1.000000,1.000000) translate(-1.000000,-1.000000)" fill="url(#105553244173280105553153430112)" opacity="1.000000"></path>
        <path d="M 1.219715 2.109584 L 4.189646 2.109584 L 4.189646 38.342247 L 1.219715 38.342247 Z M 21.145247 1.515606 C 29.461052 1.515606 32.970970 5.565457 32.970970 11.667231 C 32.970970 17.715008 29.515051 19.874929 24.007180 21.710861 L 21.091249 22.682825 C 16.069367 24.302765 14.449405 26.030701 14.449405 30.080552 C 14.449405 33.806415 17.041344 36.344321 22.279221 36.344321 C 26.167130 36.344321 29.191058 35.372357 31.189012 34.292397 L 31.189012 36.884301 C 29.245057 37.856265 26.545121 38.882227 22.387218 38.882227 C 15.151388 38.882227 11.479474 34.994371 11.479474 29.864560 C 11.479474 24.410761 14.287409 21.926853 19.957275 20.036923 L 22.873207 19.010960 C 27.517098 17.499016 30.055038 15.879076 30.055038 11.451239 C 30.055038 6.915407 27.301103 4.107510 20.983251 4.107510 C 17.149341 4.107510 13.531426 5.079474 10.885488 6.537421 L 10.885488 4.053512 C 13.207434 2.703562 16.825349 1.515606 21.145247 1.515606 Z M 40.206800 2.109584 L 52.140520 2.109584 C 59.916337 2.109584 63.912243 5.997441 63.912243 12.207211 C 63.912243 18.146992 60.024334 20.522905 55.650437 21.008887 L 55.650437 21.224879 C 59.754341 22.250841 62.184284 25.004739 62.184284 29.378578 C 62.184284 35.264361 58.890361 38.342247 50.844550 38.342247 L 40.206800 38.342247 Z M 43.122731 4.593492 L 43.122731 19.712935 L 51.276540 19.712935 C 57.216400 19.712935 60.780317 17.715008 60.780317 12.315208 C 60.780317 7.077401 57.756388 4.593492 51.978523 4.593492 Z M 43.122731 22.088847 L 43.122731 35.858339 L 50.628555 35.858339 C 56.460418 35.858339 59.106356 34.022407 59.106356 29.108588 C 59.106356 24.032775 55.488441 22.088847 50.574556 22.088847 Z M 71.202072 2.109584 L 74.172002 2.109584 L 74.172002 38.342247 L 71.202072 38.342247 Z" transform="scale(1.000000,1.000000) translate(36.000000,10.000000)" fill="url(#12789758437172800)" opacity="1.000000"></path>
    </g>
</svg>